<svg width="557" height="557" viewBox="0 0 557 557" fill="none" xmlns="http://www.w3.org/2000/svg">
<path d="M278.5 0C432.311 0 557 124.689 557 278.5C557 432.311 432.311 557 278.5 557C124.689 557 0 432.311 0 278.5C0 124.689 124.689 0 278.5 0ZM251.849 161.387C258.621 150.087 237.104 141.884 204.064 153.974C180.409 162.63 155.907 182.568 142.527 194.567C99.408 203.893 58.9791 236.02 50.9521 258.521C47.8985 266.883 52.3239 277.93 62.3359 286.58C72.0765 295.004 53.44 292.458 56.8271 302.569C60.0473 312.169 76.7505 333.793 99.5293 347.472C111.572 354.701 124.932 359.945 141.38 365.646C150.514 378.019 172.543 403.214 202.798 407.166C217.411 409.077 226.907 408.078 222.191 400.212C219.135 395.105 213.107 385.696 213.532 376.276C222.411 375.725 231.187 374.426 239.712 372.264C340.165 346.761 347.317 315.786 400.934 309.076C417.641 306.984 440.717 315.834 453.475 331.543C463.466 343.839 502.796 358.756 499.508 343.25C489.454 295.844 465.835 288.836 465.835 288.836C465.835 288.836 512.555 276.215 506.449 232.306C500.343 188.396 480.323 181.191 467.643 168.808L467.346 168.747C500.122 209.803 459.583 263.518 397.215 258.938C341.566 254.851 302.324 215.767 246.109 197.569C241.304 183.848 247.276 169.018 251.849 161.387ZM210.879 323.23C221.424 324.2 229.682 333.08 229.683 343.893C229.682 354.705 221.424 363.585 210.879 364.553C211.098 354.665 204.096 345.891 194.341 343.893C204.08 341.894 211.096 333.138 210.879 323.23ZM249.562 302.569C260.111 303.541 268.369 312.418 268.369 323.23C268.369 334.047 260.112 342.921 249.562 343.893C249.784 334.002 242.776 325.233 233.023 323.23C242.764 321.236 249.788 312.472 249.562 302.569ZM210.879 281.911C221.424 282.883 229.682 291.757 229.683 302.569C229.682 313.382 221.424 322.263 210.879 323.23C211.098 313.344 204.094 304.572 194.341 302.569C204.08 300.575 211.096 291.814 210.879 281.911ZM288.387 281.911C298.932 282.879 307.19 291.757 307.19 302.569C307.19 313.381 298.932 322.263 288.387 323.23C288.606 313.37 281.623 304.576 271.849 302.569C281.603 300.571 288.606 291.786 288.387 281.911ZM249.562 261.253C260.112 262.221 268.369 271.099 268.369 281.911C268.369 292.723 260.112 301.602 249.562 302.569C249.788 292.666 242.76 283.906 233.023 281.911C242.764 279.917 249.788 271.152 249.562 261.253ZM328.095 261.253C338.64 262.22 346.902 271.099 346.902 281.911C346.902 292.724 338.64 301.598 328.095 302.569C328.318 292.666 321.291 283.906 311.561 281.911C321.296 279.913 328.316 271.152 328.095 261.253ZM210.879 240.591C221.424 241.562 229.682 250.441 229.683 261.253C229.682 272.065 221.424 280.94 210.879 281.911C211.098 272.02 204.088 263.248 194.341 261.253C204.1 259.25 211.096 250.474 210.879 240.591ZM288.387 240.591C298.932 241.562 307.19 250.437 307.19 261.253C307.19 272.065 298.932 280.94 288.387 281.911C288.606 272.004 281.584 263.248 271.849 261.253C281.583 259.254 288.606 250.494 288.387 240.591ZM119.354 240.591C129.179 240.591 137.143 248.566 137.144 258.407C137.143 268.24 129.179 276.216 119.354 276.216C109.53 276.215 101.567 268.24 101.566 258.407C101.566 248.566 109.53 240.592 119.354 240.591ZM249.562 219.934C260.112 220.905 268.369 229.779 268.369 240.591C268.369 251.403 260.112 260.281 249.562 261.253C249.788 251.342 242.756 242.585 233.023 240.591C242.76 238.596 249.784 229.837 249.562 219.934ZM210.879 199.275C221.424 200.245 229.683 209.121 229.683 219.934C229.682 230.746 221.424 239.623 210.879 240.591C211.098 230.7 204.088 221.932 194.341 219.934C204.1 217.935 211.096 209.156 210.879 199.275Z" fill="url(#paint0_linear_182_724)"/>
<defs>
<linearGradient id="paint0_linear_182_724" x1="491" y1="37.5" x2="64.5" y2="421" gradientUnits="userSpaceOnUse">
<stop stop-color="#40D9FF"/>
<stop offset="1" stop-color="#00349D"/>
</linearGradient>
</defs>
</svg>
